<svg width="24" height="25" viewBox="0 0 24 25" fill="none" xmlns="http://www.w3.org/2000/svg">
<path d="M21.2 8.9C21.7 9.28 22 9.87 22 10.5V20.5C22 21.0304 21.7893 21.5391 21.4142 21.9142C21.0391 22.2893 20.5304 22.5 20 22.5H4C3.46957 22.5 2.96086 22.2893 2.58579 21.9142C2.21071 21.5391 2 21.0304 2 20.5V10.5C2 10.1895 2.07229 9.88328 2.21115 9.60557C2.35 9.32786 2.55161 9.08629 2.8 8.9L10.8 2.9C11.1462 2.64036 11.5673 2.5 12 2.5C12.4327 2.5 12.8538 2.64036 13.2 2.9L21.2 8.9V8.9Z" stroke="#0082C7" stroke-width="2" stroke-linecap="round" stroke-linejoin="round"/>
<path d="M22 10.5L13.03 16.2C12.7213 16.3934 12.3643 16.496 12 16.496C11.6357 16.496 11.2787 16.3934 10.97 16.2L2 10.5" stroke="#0082C7" stroke-width="2" stroke-linecap="round" stroke-linejoin="round"/>
</svg>
