<svg width="44" height="44" viewBox="0 0 44 44" fill="none" xmlns="http://www.w3.org/2000/svg">
<path fill-rule="evenodd" clip-rule="evenodd" d="M18.9816 4.34492C18.9816 3.85994 19.3747 3.4668 19.8597 3.4668H26.3829C26.8678 3.4668 27.261 3.85994 27.261 4.34492C27.261 4.82989 26.8678 5.22304 26.3829 5.22304H19.8597C19.3747 5.22304 18.9816 4.82989 18.9816 4.34492ZM23.8114 23.3629V18.4578C23.8114 17.9729 23.4182 17.5797 22.9333 17.5797C22.4483 17.5797 22.0551 17.9729 22.0551 18.4578V23.7266C22.0551 23.8311 22.0734 23.9315 22.107 24.0245C22.1494 24.1424 22.2178 24.2531 22.3123 24.3476L27.5811 29.6163C27.924 29.9592 28.48 29.9592 28.8229 29.6163C29.1658 29.2734 29.1658 28.7174 28.8229 28.3745L23.8114 23.3629ZM31.7207 15.3108C29.6299 13.1869 26.8323 11.9043 23.8586 11.706C20.885 11.5078 17.9419 12.4077 15.5877 14.2352C15.2046 14.5326 14.653 14.4631 14.3556 14.08C14.0582 13.697 14.1277 13.1453 14.5108 12.8479C17.2048 10.7567 20.5726 9.72681 23.9755 9.95366C27.3774 10.1805 30.5778 11.6475 32.9701 14.0766C34.56 15.6705 35.7397 17.6263 36.4081 19.7761C37.0768 21.927 37.2138 24.2079 36.8073 26.4233C36.4007 28.6386 35.4629 30.7223 34.0741 32.4956C32.6854 34.2689 30.8872 35.6788 28.8338 36.6044C26.7804 37.53 24.5331 37.9437 22.2847 37.81C20.0363 37.6763 17.8539 36.9991 15.9248 35.8366C13.9956 34.6741 12.3772 33.061 11.2084 31.1356C10.0396 29.2102 9.35538 27.03 9.21433 24.7821L9.21412 24.7787L8.983 20.8497L5.29201 24.5407C4.94909 24.8836 4.39309 24.8836 4.05016 24.5407C3.70724 24.1977 3.70724 23.6418 4.05016 23.2988L9.12114 18.2278C9.12309 18.2259 9.12505 18.2239 9.12701 18.222L9.81589 17.5331C10.1588 17.1902 10.7148 17.1902 11.0577 17.5331L16.8235 23.2988C17.1664 23.6418 17.1664 24.1977 16.8235 24.5407C16.4805 24.8836 15.9245 24.8836 15.5816 24.5407L10.6705 19.6296L10.9671 24.6721L10.9672 24.6738C11.0907 26.6376 11.6886 28.5422 12.7097 30.2243C13.7311 31.9068 15.1453 33.3165 16.8312 34.3324C18.5171 35.3482 20.4242 35.94 22.389 36.0569C24.3538 36.1737 26.3176 35.8122 28.112 35.0033C29.9064 34.1945 31.4778 32.9624 32.6914 31.4127C33.905 29.8631 34.7246 28.0422 35.0799 26.1063C35.4351 24.1703 35.3154 22.1771 34.7311 20.2975C34.1467 18.418 33.1152 16.7083 31.7248 15.315L31.7206 15.3108L31.7207 15.3108Z" fill="#E72028"/>
</svg>
